<?xml version="1.0" encoding="utf-8"?>
<!-- Generator: Adobe Illustrator 25.0.1, SVG Export Plug-In . SVG Version: 6.00 Build 0)  -->
<svg version="1.1" id="Layer_1" xmlns="http://www.w3.org/2000/svg" xmlns:xlink="http://www.w3.org/1999/xlink" x="0px" y="0px"
	 viewBox="0 0 30 30" style="enable-background:new 0 0 30 30;" xml:space="preserve">
<style type="text/css">
	.st0{fill:#9B0505;}
</style>
<path class="st0" d="M1.57,25.97c0,0,5.3-20.09,15.24-21.97c-1.13,0.21-2.4,1.31-3.19,2.07c-1.6,1.54-2.64,3.78-2.78,6
	c-0.11,1.71,0.39,3.49,1.57,4.73c1.28,1.34,3.2,1.9,5.05,1.93c1.68,0.03,3.39-0.35,4.83-1.22c1.82-1.11,3.09-2.96,3.88-4.94
	c0.23-0.59,0.43-1.2,0.46-1.83c0.03-0.63-0.11-1.29-0.5-1.79c-0.45-0.58-1.16-0.88-1.86-1.07C23,7.54,21.67,7.48,20.39,7.7
	c-1.13,0.2-2.78,0.9-2.9,2.26c0.54-3.25,3.97-4.43,6.9-4.1c1.01,0.11,2.06,0.41,2.81,1.13c0.87,0.84,0.94,1.86,1.09,2.98
	c0.4,2.96-0.03,6.03-1.24,8.76c-1.32,2.98-3.55,5.55-6.32,7.26c-1.33-3.51-5.69-4.41-9-4.24C4.19,22.16,1.57,25.97,1.57,25.97z"/>
</svg>
